<svg width="100" height="100" viewBox="0 0 100 100" fill="none" xmlns="http://www.w3.org/2000/svg">
<path d="M50 13.5416C29.8646 13.5416 13.5417 29.8645 13.5417 49.9999V58.3333H32.8125C34.25 58.3333 35.4167 59.4999 35.4167 60.9374V89.0624C35.4167 90.4999 34.25 91.6666 32.8125 91.6666H20.3125C17.1354 91.6666 14.0885 90.4045 11.842 88.158C9.59543 85.9114 8.33334 82.8645 8.33334 79.6874V49.9999C8.33334 26.9874 26.9875 8.33325 50 8.33325C73.0125 8.33325 91.6667 26.9874 91.6667 49.9999V79.6874C91.6667 82.8645 90.4046 85.9114 88.1581 88.158C85.9115 90.4045 82.8646 91.6666 79.6875 91.6666H67.1875C65.75 91.6666 64.5833 90.4999 64.5833 89.0624V60.9374C64.5833 59.4999 65.75 58.3333 67.1875 58.3333H86.4583V49.9999C86.4583 29.8645 70.1354 13.5416 50 13.5416ZM86.4583 63.5416H69.7917V86.4583H79.6875C81.4832 86.4583 83.2054 85.7449 84.4752 84.4751C85.745 83.2053 86.4583 81.4832 86.4583 79.6874V63.5416ZM13.5417 63.5416V79.6874C13.5417 81.4832 14.255 83.2053 15.5248 84.4751C16.7946 85.7449 18.5168 86.4583 20.3125 86.4583H30.2083V63.5416H13.5417Z" fill="#F8F8F8"/>
</svg>
