<svg width="78" height="64" viewBox="0 0 78 64" fill="none" xmlns="http://www.w3.org/2000/svg">
<g clip-path="url(#clip0_410_274)">
<path d="M74.1281 8.02682C74.1281 8.02682 67.668 11.2055 64.0761 12.1068C62.1481 10.2602 59.5858 8.95133 56.7357 8.35728C53.8856 7.76324 50.8852 7.91267 48.1404 8.78536C45.3955 9.65804 43.0387 11.2119 41.3885 13.2367C39.7384 15.2616 38.8746 17.6597 38.914 20.1068V22.7735C33.2882 22.895 27.7136 21.8556 22.6867 19.748C17.6598 17.6404 13.3367 14.5298 10.1024 10.6935C10.1024 10.6935 -2.70275 34.6935 26.1088 45.3601C19.5159 49.0881 11.6619 50.9573 3.69983 50.6935C32.5114 64.0268 67.7256 50.6935 67.7256 20.0268C67.7256 19.2855 67.6359 18.5441 67.4695 17.8135C70.7348 15.1308 74.1281 8.02682 74.1281 8.02682Z" stroke="#F8F8F8" stroke-width="6.25" stroke-linecap="round" stroke-linejoin="round"/>
</g>
<defs>
<clipPath id="clip0_410_274">
<rect width="76.8309" height="64" fill="white" transform="translate(0.498535)"/>
</clipPath>
</defs>
</svg>
