<svg width="57" height="56" viewBox="0 0 57 56" fill="none" xmlns="http://www.w3.org/2000/svg">
<g clip-path="url(#clip0_373_73)">
<path d="M28.5 0C12.76 0 0 12.5363 0 28C0 43.4647 12.7602 56 28.5 56C44.2411 56 57 43.4647 57 28C57 12.5374 44.2411 0.00153125 28.4996 0.00153125L28.4998 0.00021875L28.5 0ZM41.5697 40.3843C41.0592 41.2068 39.9632 41.4676 39.126 40.9627C32.4346 36.9471 24.011 36.0375 14.0906 38.2644C13.6312 38.3671 13.1491 38.2864 12.7503 38.04C12.3514 37.7936 12.0685 37.4016 11.9638 36.9504C11.9116 36.727 11.9047 36.4956 11.9436 36.2696C11.9825 36.0436 12.0664 35.8274 12.1905 35.6333C12.3146 35.4392 12.4765 35.271 12.6668 35.1384C12.8571 35.0058 13.0722 34.9115 13.2997 34.8607C24.1564 32.4238 33.4686 33.4729 40.981 37.9835C41.8182 38.4884 42.0836 39.5618 41.5697 40.3843ZM45.0581 32.7602C44.4146 33.7873 43.0466 34.1117 42.0019 33.4797C34.3412 28.8536 22.6635 27.5137 13.6025 30.2159C12.4273 30.5646 11.1862 29.9141 10.8296 28.7615C10.4755 27.6069 11.1382 26.3898 12.3113 26.0389C22.6615 22.9532 35.5288 24.4479 44.3264 29.7592C45.3711 30.3914 45.7013 31.7352 45.0581 32.7602ZM45.3575 24.8211C36.1721 19.4609 21.0174 18.9678 12.2477 21.5832C10.8394 22.0028 9.35 21.2216 8.92339 19.838C8.49656 18.4538 9.29078 16.9916 10.7002 16.571C20.7671 13.5684 37.5029 14.1488 48.0779 20.3166C49.3475 21.0551 49.7626 22.6625 49.0104 23.9052C48.2619 25.1499 46.6213 25.5601 45.3589 24.8211H45.3575Z" fill="#1ED760"/>
</g>
<defs>
<clipPath id="clip0_373_73">
<rect width="57" height="56" fill="white"/>
</clipPath>
</defs>
</svg>
