<svg width="75" height="66" viewBox="0 0 75 66" fill="none" xmlns="http://www.w3.org/2000/svg">
<path d="M24.2859 5.5H50.44C60.4035 5.5 68.4988 12.65 68.4988 21.45V44.55C68.4988 48.7802 66.5962 52.8371 63.2095 55.8284C59.8228 58.8196 55.2295 60.5 50.44 60.5H24.2859C14.3225 60.5 6.22717 53.35 6.22717 44.55V21.45C6.22717 17.2198 8.12979 13.1629 11.5165 10.1716C14.9031 7.18044 19.4965 5.5 24.2859 5.5ZM23.6632 11C20.6904 11 17.8394 12.043 15.7373 13.8996C13.6353 15.7563 12.4543 18.2744 12.4543 20.9V45.1C12.4543 50.5725 17.4672 55 23.6632 55H51.0627C54.0355 55 56.8866 53.957 58.9886 52.1004C61.0907 50.2437 62.2716 47.7256 62.2716 45.1V20.9C62.2716 15.4275 57.2588 11 51.0627 11H23.6632ZM53.7093 15.125C54.7415 15.125 55.7314 15.4872 56.4613 16.1318C57.1912 16.7765 57.6013 17.6508 57.6013 18.5625C57.6013 19.4742 57.1912 20.3485 56.4613 20.9932C55.7314 21.6378 54.7415 22 53.7093 22C52.6771 22 51.6871 21.6378 50.9572 20.9932C50.2273 20.3485 49.8173 19.4742 49.8173 18.5625C49.8173 17.6508 50.2273 16.7765 50.9572 16.1318C51.6871 15.4872 52.6771 15.125 53.7093 15.125ZM37.363 19.25C41.4918 19.25 45.4516 20.6987 48.3712 23.2773C51.2907 25.8559 52.9309 29.3533 52.9309 33C52.9309 36.6467 51.2907 40.1441 48.3712 42.7227C45.4516 45.3013 41.4918 46.75 37.363 46.75C33.2341 46.75 29.2744 45.3013 26.3548 42.7227C23.4353 40.1441 21.7951 36.6467 21.7951 33C21.7951 29.3533 23.4353 25.8559 26.3548 23.2773C29.2744 20.6987 33.2341 19.25 37.363 19.25ZM37.363 24.75C34.8857 24.75 32.5098 25.6192 30.7581 27.1664C29.0063 28.7135 28.0222 30.812 28.0222 33C28.0222 35.188 29.0063 37.2865 30.7581 38.8336C32.5098 40.3808 34.8857 41.25 37.363 41.25C39.8403 41.25 42.2162 40.3808 43.9679 38.8336C45.7196 37.2865 46.7037 35.188 46.7037 33C46.7037 30.812 45.7196 28.7135 43.9679 27.1664C42.2162 25.6192 39.8403 24.75 37.363 24.75Z" fill="#F8F8F8"/>
</svg>
