<svg width="117" height="117" viewBox="0 0 117 117" fill="none" xmlns="http://www.w3.org/2000/svg">
<g clip-path="url(#clip0_670_306)">
<path d="M0 12.7969C0 11.3424 0.577816 9.94739 1.60634 8.91887C2.63486 7.89035 4.02983 7.31253 5.48438 7.31253H36.5844C45.5569 7.31253 53.5275 11.6269 58.5219 18.2886C61.0749 14.8756 64.3896 12.106 68.202 10.2005C72.0145 8.29489 76.2192 7.30598 80.4814 7.31253H111.523C112.977 7.31253 114.372 7.89035 115.401 8.91887C116.429 9.94739 117.007 11.3424 117.007 12.7969V89.5782C117.007 91.0327 116.429 92.4277 115.401 93.4562C114.372 94.4847 112.977 95.0625 111.523 95.0625H78.5655C76.4048 95.0625 74.2653 95.4881 72.2691 96.3149C70.2729 97.1417 68.4591 98.3537 66.9313 99.8815L62.3829 104.423C61.3546 105.45 59.9607 106.026 58.5073 106.026C57.054 106.026 55.66 105.45 54.6317 104.423L50.0833 99.8815C48.5555 98.3537 46.7417 97.1417 44.7455 96.3149C42.7493 95.4881 40.6098 95.0625 38.4491 95.0625H5.48438C4.02983 95.0625 2.63486 94.4847 1.60634 93.4562C0.577816 92.4277 0 91.0327 0 89.5782L0 12.7969ZM53.0229 88.2912L53.0522 51.1948L53.0376 34.7198C53.0337 30.3587 51.2985 26.1775 48.2134 23.0951C45.1282 20.0127 40.9455 18.2813 36.5844 18.2813H10.9688V84.0938H38.4418C43.6002 84.0936 48.6541 85.5484 53.0229 88.2912ZM64.0209 34.7344L63.9917 88.2765C68.3582 85.5423 73.4063 84.0928 78.5582 84.0938H106.031V18.2813H80.4741C76.1104 18.2813 71.9255 20.0147 68.84 23.1003C65.7544 26.1859 64.0209 30.3708 64.0209 34.7344Z" fill="white"/>
</g>
<defs>
<clipPath id="clip0_670_306">
<rect width="117" height="117" fill="white"/>
</clipPath>
</defs>
</svg>
